<svg xmlns="http://www.w3.org/2000/svg" width="112" height="112" viewBox="0 0 112 112">
    <g fill="none" fill-rule="evenodd">
        <g>
            <g>
                <path d="M0 0H112V112H0z" transform="translate(-150 -243) translate(150 243)"/>
                <g fill-rule="nonzero">
                    <path fill="#95D6A4" d="M70.664.147H10.387C4.65.147 0 4.797 0 10.535v48.404c0 5.737 4.65 10.388 10.387 10.388.82 0 1.486.665 1.486 1.485v8.684h2.14l8.263-7.925c.877-.84 2-1.379 3.206-1.535l5.471-.71h39.71c5.737 0 10.388-4.65 10.388-10.387V10.535C81.05 4.798 76.4.147 70.664.147z" transform="translate(-150 -243) translate(150 243) translate(11.667 11.667)"/>
                    <g fill="#77CE8E">
                        <path d="M66.503.147h-9.757c5.737 0 10.388 4.65 10.388 10.388v48.404c0 5.737-4.65 10.388-10.388 10.388h9.757c5.737 0 10.388-4.651 10.388-10.388V10.535C76.89 4.798 72.24.147 66.503.147zM9.71 70.276l-9.613 9.22v5.75c0 1.355 1.625 2.048 2.604 1.11l16.765-16.08c.636-.609 1.482-.95 2.363-.95h-9.757c-.88 0-1.727.34-2.362.95z" transform="translate(-150 -243) translate(150 243) translate(11.667 11.667) translate(11.776)"/>
                    </g>
                    <g fill="#FFF">
                        <path d="M63.361 2.829H16.34c-.74 0-1.338-.599-1.338-1.338 0-.739.599-1.338 1.338-1.338H63.36c.74 0 1.338.6 1.338 1.338 0 .739-.599 1.338-1.338 1.338zM63.361 17.023H1.407c-.74 0-1.338-.599-1.338-1.338 0-.739.599-1.338 1.338-1.338H63.36c.74 0 1.338.6 1.338 1.338 0 .74-.599 1.338-1.338 1.338zM63.361 31.217H1.407c-.74 0-1.338-.599-1.338-1.338 0-.738.599-1.338 1.338-1.338H63.36c.74 0 1.338.6 1.338 1.338 0 .74-.599 1.338-1.338 1.338z" transform="translate(-150 -243) translate(150 243) translate(11.667 11.667) translate(11.95 17.318)"/>
                    </g>
                </g>
            </g>
        </g>
    </g>
</svg>
