<svg xmlns="http://www.w3.org/2000/svg" width="72" height="72" viewBox="0 0 72 72">
    <g fill="none" fill-rule="evenodd">
        <g>
            <g>
                <g>
                    <path d="M0 0H72V72H0z" transform="translate(-323 -387) translate(214 376) translate(109 11)"/>
                    <g fill-rule="nonzero">
                        <path fill="#FFCDD4" d="M56.82 22.84c-.453-1.393-1.75-1.999-2.935-2.323.769-.96 1.462-2.21 1.009-3.604-.428-1.319-1.671-2.452-3.5-3.191-1.794-.726-4.02-1.019-6.435-.847-2.319.165-4.439.867-6.119 1.625.217-1.735.268-3.953-.314-6.299-.583-2.35-1.549-4.376-2.794-5.859C34.464.832 33.002 0 31.615 0c-1.464 0-2.44 1.045-3.115 2.072C27.826 1.045 26.85 0 25.385 0c-1.387 0-2.85.832-4.117 2.342-1.245 1.483-2.21 3.509-2.794 5.86-.555 2.238-.56 4.432-.358 6.278-1.672-.75-3.776-1.442-6.074-1.605-2.416-.172-4.641.12-6.436.847-1.829.739-3.071 1.872-3.5 3.191-.453 1.393.24 2.645 1.009 3.604-1.186.324-2.482.93-2.934 2.322-.429 1.32-.09 2.967.955 4.639 1.025 1.642 2.654 3.187 4.709 4.468 1.954 1.218 4.034 1.9 5.851 2.278-1.247 1.374-2.529 3.148-3.394 5.283-.91 2.244-1.32 4.451-1.184 6.383.138 1.967.832 3.499 1.954 4.314 1.185.86 2.59.589 3.739.155-.058 1.227.117 2.647 1.302 3.508 1.122.815 2.794 1.001 4.707.525 1.879-.468 3.851-1.54 5.704-3.098 1.809-1.52 3.062-3.394 3.919-4.965.924 1.636 2.233 3.452 4.032 4.965 1.853 1.559 3.826 2.63 5.704 3.098.695.173 1.357.258 1.973.258 1.081 0 2.02-.264 2.734-.783 1.185-.86 1.36-2.28 1.303-3.508 1.15.434 2.554.706 3.74-.155 1.12-.815 1.815-2.347 1.953-4.314.135-1.931-.274-4.138-1.184-6.382-.873-2.154-2.196-3.954-3.436-5.317 1.716-.33 3.842-.967 5.893-2.245 2.055-1.28 3.684-2.826 4.71-4.468 1.044-1.672 1.383-3.32.954-4.639z" transform="translate(-323 -387) translate(214 376) translate(109 11) translate(7.5 9)"/>
                        <path fill="#FFA9B5" d="M56.82 22.84c-.453-1.393-1.75-1.999-2.935-2.323.769-.96 1.462-2.21 1.009-3.604-.428-1.319-1.671-2.452-3.5-3.191-1.794-.726-4.02-1.019-6.435-.847-2.319.165-4.439.867-6.119 1.625.217-1.735.268-3.953-.314-6.299-.583-2.35-1.549-4.376-2.794-5.859C34.464.832 33.002 0 31.615 0c-1.464 0-2.44 1.045-3.115 2.072v44.356c.92 1.61 2.212 3.384 3.975 4.866 1.853 1.559 3.826 2.63 5.704 3.098.695.173 1.357.258 1.973.258 1.081 0 2.02-.264 2.734-.783 1.185-.86 1.36-2.28 1.303-3.508 1.15.434 2.554.706 3.74-.155 1.12-.815 1.815-2.347 1.953-4.314.135-1.931-.274-4.138-1.184-6.382-.873-2.154-2.196-3.954-3.436-5.317 1.716-.33 3.842-.967 5.893-2.245 2.055-1.28 3.684-2.826 4.71-4.468 1.044-1.672 1.383-3.32.954-4.639z" transform="translate(-323 -387) translate(214 376) translate(109 11) translate(7.5 9)"/>
                        <path fill="#FF81AD" d="M32.274 31.597c.172.055.346.082.516.082.705 0 1.359-.449 1.588-1.154.285-.877-.195-1.82-1.072-2.105l-2.104-.683 1.3-1.79c.542-.746.377-1.79-.369-2.333-.746-.542-1.79-.376-2.332.37l-1.3 1.79-1.301-1.79c-.542-.746-1.587-.912-2.333-.37-.746.542-.911 1.586-.37 2.332l1.302 1.79-2.105.684c-.877.286-1.357 1.228-1.072 2.105.23.706.884 1.154 1.588 1.154.17 0 .345-.027.516-.082l2.105-.684v2.212c0 .923.747 1.67 1.67 1.67.921 0 1.67-.747 1.67-1.67v-2.212l2.103.684z" transform="translate(-323 -387) translate(214 376) translate(109 11) translate(7.5 9)"/>
                        <g fill="#FF5E95">
                            <path d="M4.806 5.153l-2.104-.684 1.3-1.79c.542-.746.377-1.79-.369-2.332-.746-.543-1.79-.377-2.332.369L0 2.506H0v9.022c.922 0 1.67-.748 1.67-1.67V7.646l2.104.683c.172.056.346.082.516.082.705 0 1.359-.448 1.589-1.154.284-.877-.196-1.82-1.073-2.104zM5.842 10.567c-.542-.746-1.586-.911-2.332-.37-.746.543-.912 1.587-.37 2.334l2.035 2.8c.327.45.836.688 1.352.688.34 0 .684-.104.98-.32.746-.541.912-1.586.37-2.331l-2.035-2.8zM10.043.348L6.75 1.418c-.877.285-1.357 1.227-1.072 2.104.23.706.884 1.155 1.588 1.155.17 0 .345-.027.516-.083l3.292-1.07c.877-.284 1.357-1.226 1.072-2.103C11.862.544 10.92.063 10.043.348z" transform="translate(-323 -387) translate(214 376) translate(109 11) translate(7.5 9) translate(28.5 23.268)"/>
                        </g>
                        <path fill="#FF81AD" d="M28.5 22.664c.922 0 1.67-.748 1.67-1.67v-3.461c0-.922-.748-1.67-1.67-1.67-.922 0-1.67.748-1.67 1.67v3.461c0 .922.748 1.67 1.67 1.67z" transform="translate(-323 -387) translate(214 376) translate(109 11) translate(7.5 9)"/>
                        <path fill="#FF5E95" d="M30.17 20.994v-3.461c0-.922-.748-1.67-1.67-1.67v6.801c.922 0 1.67-.748 1.67-1.67z" transform="translate(-323 -387) translate(214 376) translate(109 11) translate(7.5 9)"/>
                        <path fill="#FF81AD" d="M21.234 27.944c.703 0 1.358-.449 1.587-1.154.286-.878-.195-1.82-1.072-2.104l-3.291-1.07c-.878-.285-1.82.195-2.105 1.072-.284.877.196 1.82 1.072 2.104l3.292 1.07c.172.056.346.082.517.082zM24.99 33.465c-.746-.542-1.79-.376-2.332.37l-2.034 2.8c-.542.746-.377 1.79.37 2.332.295.216.639.32.98.32.516 0 1.025-.24 1.351-.689l2.035-2.8c.542-.746.376-1.79-.37-2.333z" transform="translate(-323 -387) translate(214 376) translate(109 11) translate(7.5 9)"/>
                    </g>
                </g>
            </g>
        </g>
    </g>
</svg>
