<svg xmlns="http://www.w3.org/2000/svg" width="113" height="112" viewBox="0 0 113 112">
    <g fill="none" fill-rule="evenodd">
        <g>
            <g>
                <path d="M0 0H112V112H0z" transform="translate(-149 -243) translate(149.5 243)"/>
                <g fill-rule="nonzero">
                    <path fill="#E175A5" d="M49.16 72.98c-.127.125-.256.245-.389.358-2.682 2.298-6.969.539-9.509-1.998L8.227 39.041c-1.782-1.768-7.129-5.161-5.991-13.977C3.408 15.98 5.51 6.456 13.508 2.557 16.684 1.008 20.252.139 24.023.139c8.588 0 16.063 4.507 20.31 11.285C48.58 4.646 56.061.14 64.65.14c13.253 0 24.009 11.274 24.018 24.527.004 7.164-4.254 12.845-6.223 15.07-.033.038-.065.072-.1.107L49.159 72.98z" transform="translate(-149 -243) translate(149.5 243) translate(11.667 18.667)"/>
                    <path fill="#DE5791" d="M58.078 33.665c-1.703-2.432-5.054-3.023-7.486-1.32L37.417 41.57l-.013.01-3.554 2.488c-2.431 1.703-3.022 5.054-1.32 7.486 1.703 2.432 5.054 3.022 7.486 1.32L56.758 41.15c2.432-1.703 3.023-5.054 1.32-7.486zM37.13 41.832c.081-.08.165-.158.25-.233l-.25.233zm-5.571 3.105v3.595l3.754.146v-3.624l-3.754-.117zM55.297 33.03v3.595l3.754.146v-3.624l-3.754-.117z" transform="translate(-149 -243) translate(149.5 243) translate(11.667 18.667)"/>
                    <path fill="#DE5791" d="M43.625 73.816c-.562 0-1.086-.357-1.27-.92l-2.436-7.393c-.134-.41-.063-.86.192-1.208l5.878-8.034-5.806-6.896c-.476-.566-.403-1.41.162-1.886.565-.475 1.41-.403 1.885.162l6.482 7.7c.398.472.42 1.154.056 1.652l-6.092 8.327 2.22 6.74c.23.702-.151 1.458-.853 1.689-.139.045-.28.067-.418.067z" transform="translate(-149 -243) translate(149.5 243) translate(11.667 18.667)"/>
                    <path fill="#DE5791" d="M45.768 74.815c-.905.193-1.854.207-2.782.024l-3.066-9.336c-.106-.318-.086-.66.048-.96l3.652 3.648 2.09 6.364c.03.087.047.175.058.26zM48.943 40.221c.214-.29.232-.683.045-.992l-2.453-4.044-2.198 1.54 1.432 2.36c.188.308.17.7-.044.992l-5.82 7.896c-.246.332-.23.788.036 1.102l2.04 2.423 2.199-1.541-.833-.99c-.266-.316-.282-.773-.036-1.105l5.632-7.64z" transform="translate(-149 -243) translate(149.5 243) translate(11.667 18.667)"/>
                    <path fill="#DE5791" d="M48.77 73.338c-.845.733-1.877 1.235-2.976 1.472-.906.196-1.86.214-2.792.032-.005-.002-.01-.002-.016-.003-1.254-.247-2.47-.851-3.478-1.86L6.276 39.798C4.494 38.029 0 33.05 0 24.163 0 14.665 5.513 6.456 13.51 2.557c-5 4.403-8.158 10.85-8.158 18.038 0 8.888 4.494 13.865 6.276 15.633l28.34 28.315 3.652 3.648v.002l5.15 5.145z" transform="translate(-149 -243) translate(149.5 243) translate(11.667 18.667)"/>
                    <path fill="#DB387E" d="M45.794 74.81c-.906.196-1.86.214-2.792.032-.005-.002-.01-.002-.016-.003l-3.066-9.336c-.106-.318-.086-.66.048-.96l3.652 3.648v.002l2.174 6.617z" transform="translate(-149 -243) translate(149.5 243) translate(11.667 18.667)"/>
                    <path fill="#DE5791" d="M45.706 33.82l-2.553-4.208c-.196-.323-.167-.736.073-1.028l5.656-6.898c.197-.24.255-.566.153-.859L45.283 10.02c-.18.246-.36.505-.542.775l-.073.11c-.16.241-.51.24-.67-.001-.271-.41-.57-.834-.9-1.268-.44-.582-.88-1.107-1.304-1.576l4.22 12.23c.103.293.045.618-.152.859l-5.906 7.203c-.24.293-.27.705-.073 1.028l3.349 5.52 2.474-1.08z" transform="translate(-149 -243) translate(149.5 243) translate(11.667 18.667)"/>
                    <path fill="#DB387E" d="M43.311 47.862c-.246.332-.23.789.036 1.104l.833.99-2.2 1.542-2.039-2.423c-.266-.314-.282-.77-.036-1.102l5.82-7.896c.214-.291.232-.684.044-.992l-1.432-2.36 2.198-1.54 2.453 4.044c.187.309.17.701-.045.992l-5.632 7.641z" transform="translate(-149 -243) translate(149.5 243) translate(11.667 18.667)"/>
                    <path fill="#FFEEE5" d="M56.758 37.583l-13.18 9.228-3.638 2.265c-2.431 1.703-5.079 1.04-6.782-1.391-1.702-2.432-1.783-5.235.649-6.938l3.61-2.745 13.175-9.225c2.432-1.703 5.783-1.112 7.486 1.32 1.703 2.432 1.112 5.783-1.32 7.486z" transform="translate(-149 -243) translate(149.5 243) translate(11.667 18.667)"/>
                    <path fill="#FFDECF" d="M52.604 40.491L46.906 44.48 44.296 46.308 43.129 40.635 38.13 37.502 40.787 35.643 41.834 34.91 46.438 31.686z" transform="translate(-149 -243) translate(149.5 243) translate(11.667 18.667)"/>
                    <path fill="#FFCDBE" d="M46.906 44.48L44.296 46.308 38.13 37.502 40.787 35.643z" transform="translate(-149 -243) translate(149.5 243) translate(11.667 18.667)"/>
                    <path fill="#FFDECF" d="M33.85 40.5c-2.431 1.703-3.022 5.054-1.32 7.486 1.703 2.431 5.054 3.022 7.486 1.32l3.548-2.485c-2.43 1.686-5.768 1.092-7.466-1.333-1.702-2.432-1.111-5.783 1.32-7.486L33.85 40.5z" transform="translate(-149 -243) translate(149.5 243) translate(11.667 18.667)"/>
                </g>
            </g>
        </g>
    </g>
</svg>
