<svg xmlns="http://www.w3.org/2000/svg" width="113" height="112" viewBox="0 0 113 112">
    <g fill="none" fill-rule="evenodd">
        <g>
            <g>
                <path d="M0 0H112V112H0z" transform="translate(-149 -243) translate(149.5 243)"/>
                <g fill-rule="nonzero">
                    <path fill="#F9EAB0" d="M85.61 0H57.388c-.277.003-.553.028-.826.076v67.265c.273-.048.549-.074.826-.077h28.22c1.687-.005 3.053-1.37 3.058-3.057V3.057C88.662 1.371 87.296.005 85.609 0zM3.056 9.172C1.371 9.177.005 10.543 0 12.23v61.15c.005 1.686 1.371 3.052 3.057 3.057h28.22c.278-.003.554-.028.826-.077V9.096c-.272.048-.548.074-.825.076H3.058z" transform="translate(-149 -243) translate(149.5 243) translate(11.667 18.667)"/>
                    <path fill="#F3D55B" d="M56.563.076v67.265c-.265.05-.526.121-.78.214l-22.9 8.591c-.253.093-.514.164-.78.214V9.096c.266-.05.527-.121.78-.214L55.783.29c.254-.092.515-.164.78-.214z" transform="translate(-149 -243) translate(149.5 243) translate(11.667 18.667)"/>
                    <path fill="#4FBA6F" d="M32.103 60.293v9.616l-.336.122c-.512.197-1.057.295-1.605.291H7.644c-.845 0-1.53-.685-1.53-1.529v-9.172s3.058-6.115 12.23-6.115c5.23 0 8.96 3.653 13.76 6.787z" transform="translate(-149 -243) translate(149.5 243) translate(11.667 18.667)"/>
                    <path fill="#FFF" d="M32.103 15.241v20.455c-5.9-2.645-9.08-9.707-15.287-9.707-4.413-.059-8.51 2.283-10.701 6.114V16.816c0-.844.684-1.529 1.529-1.529h23.634c.276 0 .551-.015.825-.046z" transform="translate(-149 -243) translate(149.5 243) translate(11.667 18.667)"/>
                    <path fill="#BDC3C7" d="M32.103 35.696v24.597c-4.8-3.134-8.53-6.787-13.758-6.787-9.173 0-12.23 6.115-12.23 6.115V32.103c2.19-3.831 6.288-6.173 10.701-6.114 6.207 0 9.387 7.062 15.287 9.707z" transform="translate(-149 -243) translate(149.5 243) translate(11.667 18.667)"/>
                    <path fill="#24AE5F" d="M45.862 64.742l-13.759 5.167v-9.616c4.02 2.864 8.824 4.417 13.76 4.449z" transform="translate(-149 -243) translate(149.5 243) translate(11.667 18.667)"/>
                    <path fill="#ECF0F1" d="M56.563 6.528v19.46c-7.643 0-10.7 10.702-19.873 10.702-1.583.001-3.147-.338-4.587-.994V15.241c1-.064 1.983-.275 2.92-.626l21.54-8.087z" transform="translate(-149 -243) translate(149.5 243) translate(11.667 18.667)"/>
                    <path fill="#95A5A5" d="M56.563 25.989v35.206c-.999.065-1.982.276-2.92.627l-7.78 2.92c-4.936-.032-9.74-1.585-13.76-4.449V35.696c1.44.656 3.004.995 4.587.994 9.172 0 12.23-10.701 19.873-10.701z" transform="translate(-149 -243) translate(149.5 243) translate(11.667 18.667)"/>
                    <path fill="#FFF" d="M82.552 7.644v32.103c-10.701 0-13.224-3.898-15.288-7.644-2.085-3.935-6.252-6.316-10.7-6.114V6.528l.336-.123c.512-.196 1.056-.294 1.605-.29h22.518c.844 0 1.529.684 1.529 1.529z" transform="translate(-149 -243) translate(149.5 243) translate(11.667 18.667)"/>
                    <path fill="#BDC3C7" d="M82.552 39.747v16.281c-1.031-3.347-4.142-5.618-7.644-5.58-7.644 0-7.644 10.701-18.345 10.701V25.99c4.45-.202 8.616 2.179 10.701 6.114 2.064 3.746 4.587 7.644 15.288 7.644z" transform="translate(-149 -243) translate(149.5 243) translate(11.667 18.667)"/>
                    <path fill="#4FBA6F" d="M82.552 56.028v3.593c0 .844-.685 1.528-1.529 1.528H57.389c-.276 0-.552.016-.826.046v-.046c10.701 0 10.701-10.7 18.345-10.7 3.502-.039 6.613 2.232 7.644 5.58z" transform="translate(-149 -243) translate(149.5 243) translate(11.667 18.667)"/>
                    <path fill="#FF5364" d="M75.54 16.816l1.978-1.977c.579-.6.57-1.553-.019-2.143-.59-.59-1.543-.598-2.143-.018l-1.977 1.976-1.976-1.976c-.6-.58-1.554-.571-2.143.018-.59.59-.598 1.544-.019 2.143l1.977 1.977-1.977 1.977c-.397.384-.557.952-.417 1.486.14.535.557.952 1.092 1.092.534.14 1.103-.02 1.487-.417l1.976-1.976 1.977 1.976c.6.58 1.553.571 2.143-.018.59-.59.598-1.543.019-2.143l-1.977-1.977zM15.913 37.08l-3.306 3.448c-.37.379-.482.94-.286 1.432.195.492.661.823 1.19.845h6.61c.529-.022.995-.353 1.19-.845.196-.492.083-1.053-.286-1.432L17.72 37.08c-.235-.248-.562-.39-.904-.39-.342 0-.669.142-.903.39z" transform="translate(-149 -243) translate(149.5 243) translate(11.667 18.667)"/>
                    <path fill="#3B97D3" d="M45.098 51.977H42.04c-2.955 0-5.35-2.396-5.35-5.35 0-1.267-1.027-2.294-2.293-2.294h-6.88c-.844 0-1.528-.684-1.528-1.528 0-.845.684-1.53 1.528-1.53h6.88c2.955 0 5.35 2.396 5.35 5.351 0 1.267 1.027 2.294 2.293 2.294h3.058c2.11 0 3.822-1.712 3.822-3.822.004-3.798 3.081-6.875 6.879-6.88h8.408c4.22-.005 7.639-3.424 7.644-7.643V24.46c0-.845.684-1.529 1.528-1.529.845 0 1.529.684 1.529 1.529v6.115c-.007 5.907-4.794 10.694-10.701 10.7h-8.408c-2.11 0-3.822 1.712-3.822 3.823-.004 3.797-3.082 6.875-6.88 6.879z" transform="translate(-149 -243) translate(149.5 243) translate(11.667 18.667)"/>
                </g>
            </g>
        </g>
    </g>
</svg>
